<?xml version="1.0" encoding="utf-8"?>
<!-- Generator: Adobe Illustrator 23.1.0, SVG Export Plug-In . SVG Version: 6.00 Build 0)  -->
<svg version="1.1" id="Capa_1" xmlns="http://www.w3.org/2000/svg" xmlns:xlink="http://www.w3.org/1999/xlink" x="0px" y="0px"
	 viewBox="0 0 430 111" style="enable-background:new 0 0 430 111;" xml:space="preserve">
<style type="text/css">
	.st0{fill:#C20A66;}
	.st1{fill:#F655A6;}
	.st2{fill:#FFFFFF;}
</style>
<g>
	<path class="st0" d="M129.84,70.91h-9.56V45.04h8.39c2.51,0,3.88,0.43,5.17,1.61c1.25,1.18,2.04,2.94,2.04,4.74
		c0,2.78-1.68,5.02-4.43,5.96c3.45,0.67,5.41,3.1,5.41,6.66C136.86,68.13,134.04,70.91,129.84,70.91z M131.41,48.69
		c-0.67-0.71-1.49-0.94-3.49-0.94h-4.43v8.39h4.19c1.84,0,2.67-0.27,3.53-1.14c0.78-0.78,1.25-2,1.25-3.33
		C132.47,50.41,132.08,49.36,131.41,48.69z M127.92,59.08h-4.43v9.13h4.43c2.35,0,3.25-0.24,4.16-0.98
		c0.82-0.71,1.37-2.08,1.37-3.45C133.45,60.76,131.45,59.08,127.92,59.08z"/>
	<path class="st0" d="M143.92,70.91V45.04h3.21v25.87H143.92z"/>
	<path class="st0" d="M164.02,47.75v23.16h-3.21V47.75h-8.62v-2.71h20.46v2.71H164.02z"/>
	<path class="st1" d="M190.32,48.38c-1.96-1.18-3.76-1.8-6.08-1.8c-3.14,0-5.37,1.68-5.37,4.35c0,2.35,1.25,3.49,6.43,6.35
		c3.02,1.65,5.92,3.29,5.92,7.17c0,4.27-3.02,6.98-7.96,6.98c-2.98,0-5.02-0.86-7.41-2.51l1.1-1.76c2.19,1.49,3.8,2.31,6.55,2.31
		c3.29,0,5.37-1.8,5.37-4.7c0-3.84-4.23-5.41-7.02-6.98c-3.8-2.12-5.33-4.31-5.33-6.82c0-3.92,3.1-6.35,8-6.35
		c2.7,0,4.51,0.55,6.78,1.92L190.32,48.38z"/>
	<path class="st1" d="M198.87,70.91V45.04h13.44v1.88h-11.33v9.84h9.37v1.88h-9.37v10.39h11.68v1.88H198.87z"/>
	<path class="st1" d="M230.65,71.42c-7.45,0-13.05-5.8-13.05-13.48c0-7.72,5.6-13.33,13.13-13.33c2.9,0,5.33,0.51,7.84,1.72
		l-0.82,1.8c-2.27-1.1-4.39-1.57-6.7-1.57c-6.55,0-11.09,4.59-11.09,11.13c0,6.7,4.59,11.76,11.41,11.76c1.37,0,2.94-0.31,5.21-0.9
		V59.9h2.12v10.15C236.18,70.99,233.36,71.42,230.65,71.42z"/>
	<path class="st1" d="M256.52,71.66c-5.88,0-9.6-3.33-9.6-9.6V45.04h2.12v16.38c0,4.94,2.16,8.27,7.45,8.27
		c5.53,0,7.45-3.33,7.45-8.27V45.04h2.12v17.01C266.05,68.17,262.4,71.66,256.52,71.66z"/>
	<path class="st1" d="M288.31,70.91l-7.29-11.52h-3.96v11.52h-2.12V45.04h7.56c4.39,0,7.37,1.96,7.37,6.74
		c0,4.31-2.67,6.94-6.51,7.29l7.53,11.84H288.31z M281.41,46.93h-4.35v10.58h4.74c3.76,0,5.72-1.96,5.72-5.68
		C287.53,47.75,284.98,46.93,281.41,46.93z"/>
	<path class="st1" d="M297.76,70.91V45.04h2.12v25.87H297.76z"/>
	<path class="st1" d="M317.47,70.91h-8.03V45.04h8.07c7.21,0,12.39,4.94,12.39,12.43C329.9,65.07,325.15,70.91,317.47,70.91z
		 M317,46.93h-5.45v22.11H317c6.82,0,10.54-4.74,10.54-11.6C327.55,51.2,323.19,46.93,317,46.93z"/>
	<path class="st1" d="M352.36,70.91l-2.67-7.96h-11.25l-2.67,7.96h-2.31l9.29-26.61h2.67l9.25,26.61H352.36z M344.08,46.46
		l-4.98,14.5h9.92L344.08,46.46z"/>
	<path class="st1" d="M368.5,70.91h-8.03V45.04h8.07c7.21,0,12.39,4.94,12.39,12.43C380.93,65.07,376.19,70.91,368.5,70.91z
		 M368.03,46.93h-5.45v22.11h5.45c6.82,0,10.54-4.74,10.54-11.6C378.58,51.2,374.23,46.93,368.03,46.93z"/>
</g>
<g>
	<g>
		<g>
			<path class="st0" d="M62.31,91.99c-4.61,0-9.22-0.94-13.59-2.83c-8.42-3.63-14.91-10.32-18.3-18.84
				c-6.98-17.59,1.64-37.57,19.23-44.56c17.58-6.98,37.57,1.64,44.56,19.22l0,0c6.98,17.59-1.64,37.57-19.23,44.56
				C70.88,91.18,66.59,91.99,62.31,91.99z M62.28,24.74c-4.04,0-8.14,0.75-12.11,2.33c-16.87,6.7-25.14,25.87-18.44,42.74
				c6.7,16.87,25.87,25.14,42.74,18.44c16.87-6.7,25.14-25.87,18.44-42.74C87.79,32.62,75.37,24.74,62.28,24.74z"/>
		</g>
		<g>
			<circle class="st0" cx="62.23" cy="57.34" r="30.7"/>
		</g>
	</g>
	<g>
		<g>
			<path class="st2" d="M67.28,56.33H56.43V45.48h10.85V56.33z M57.48,55.28h8.75v-8.75h-8.75V55.28z"/>
		</g>
		<g>
			<path class="st2" d="M81.28,56.33H70.43V45.48h10.85V56.33z M71.48,55.28h8.75v-8.75h-8.75V55.28z"/>
		</g>
		<g>
			<path class="st2" d="M53.28,70.33H42.43V59.48h10.85V70.33z M43.48,69.28h8.75v-8.75h-8.75V69.28z"/>
		</g>
		<g>
			<path class="st2" d="M67.28,70.33H56.43V59.48h10.85V70.33z M57.48,69.28h8.75v-8.75h-8.75V69.28z"/>
		</g>
	</g>
</g>
</svg>
