<?xml version="1.0" encoding="utf-8"?>
<!-- Generator: Adobe Illustrator 23.1.0, SVG Export Plug-In . SVG Version: 6.00 Build 0)  -->
<svg version="1.1" id="Capa_1" xmlns="http://www.w3.org/2000/svg" xmlns:xlink="http://www.w3.org/1999/xlink" x="0px" y="0px"
	 viewBox="0 0 430 111" style="enable-background:new 0 0 430 111;" xml:space="preserve">
<style type="text/css">
	.st0{fill:#FFFFFF;}
	.st1{fill:none;}
</style>
<g>
	<g>
		<g>
			<path class="st0" d="M121.87,69.7h-11.07V39.74h9.71c2.9,0,4.49,0.5,5.99,1.86c1.45,1.36,2.36,3.4,2.36,5.49
				c0,3.22-1.95,5.81-5.13,6.9c4,0.77,6.26,3.59,6.26,7.72C129.99,66.48,126.72,69.7,121.87,69.7z M123.68,43.97
				c-0.77-0.82-1.73-1.09-4.04-1.09h-5.13v9.71h4.86c2.13,0,3.09-0.32,4.08-1.32c0.91-0.91,1.45-2.31,1.45-3.86
				C124.91,45.96,124.45,44.74,123.68,43.97z M119.64,55.99h-5.13v10.57h5.13c2.72,0,3.77-0.27,4.81-1.13
				c0.95-0.82,1.59-2.41,1.59-3.99C126.04,57.94,123.73,55.99,119.64,55.99z"/>
		</g>
		<g>
			<path class="st0" d="M138.16,69.7V39.74h3.72V69.7H138.16z"/>
		</g>
		<g>
			<path class="st0" d="M161.44,42.88V69.7h-3.72V42.88h-9.98v-3.13h23.69v3.13H161.44z"/>
		</g>
		<g>
			<path class="st0" d="M191.89,43.6c-2.27-1.36-4.36-2.09-7.03-2.09c-3.63,0-6.22,1.95-6.22,5.04c0,2.72,1.45,4.04,7.44,7.35
				c3.49,1.91,6.85,3.81,6.85,8.31c0,4.95-3.49,8.08-9.21,8.08c-3.45,0-5.81-1-8.58-2.9l1.27-2.04c2.54,1.72,4.4,2.68,7.58,2.68
				c3.81,0,6.22-2.09,6.22-5.45c0-4.45-4.9-6.26-8.12-8.08c-4.4-2.45-6.17-4.99-6.17-7.9c0-4.54,3.59-7.35,9.26-7.35
				c3.13,0,5.22,0.64,7.85,2.22L191.89,43.6z"/>
		</g>
		<g>
			<path class="st0" d="M201.78,69.7V39.74h15.57v2.18h-13.12v11.39h10.85v2.18h-10.85v12.03h13.52v2.18H201.78z"/>
		</g>
		<g>
			<path class="st0" d="M238.59,70.29c-8.62,0-15.11-6.72-15.11-15.61c0-8.94,6.49-15.43,15.2-15.43c3.36,0,6.17,0.59,9.08,2
				l-0.95,2.09c-2.63-1.27-5.08-1.81-7.76-1.81c-7.58,0-12.84,5.31-12.84,12.89c0,7.76,5.31,13.61,13.21,13.61
				c1.59,0,3.4-0.36,6.04-1.04V56.94h2.45V68.7C244.99,69.79,241.72,70.29,238.59,70.29z"/>
		</g>
		<g>
			<path class="st0" d="M268.54,70.56c-6.81,0-11.12-3.86-11.12-11.12v-19.7h2.45v18.97c0,5.72,2.5,9.58,8.62,9.58
				c6.4,0,8.62-3.86,8.62-9.58V39.74h2.45v19.7C279.57,66.52,275.35,70.56,268.54,70.56z"/>
		</g>
		<g>
			<path class="st0" d="M305.35,69.7l-8.44-13.34h-4.58V69.7h-2.45V39.74h8.76c5.08,0,8.53,2.27,8.53,7.81
				c0,4.99-3.09,8.03-7.53,8.44l8.71,13.71H305.35z M297.36,41.92h-5.04v12.25h5.49c4.36,0,6.63-2.27,6.63-6.58
				C304.44,42.88,301.49,41.92,297.36,41.92z"/>
		</g>
		<g>
			<path class="st0" d="M316.28,69.7V39.74h2.45V69.7H316.28z"/>
		</g>
		<g>
			<path class="st0" d="M339.11,69.7h-9.3V39.74h9.35c8.35,0,14.34,5.72,14.34,14.39C353.5,62.94,348.01,69.7,339.11,69.7z
				 M338.57,41.92h-6.31v25.6h6.31c7.9,0,12.21-5.49,12.21-13.43C350.78,46.87,345.74,41.92,338.57,41.92z"/>
		</g>
		<g>
			<path class="st0" d="M379.5,69.7l-3.09-9.21h-13.03l-3.09,9.21h-2.68l10.76-30.81h3.09l10.71,30.81H379.5z M369.93,41.38
				l-5.76,16.79h11.48L369.93,41.38z"/>
		</g>
		<g>
			<path class="st0" d="M398.2,69.7h-9.3V39.74h9.35c8.35,0,14.34,5.72,14.34,14.39C412.59,62.94,407.1,69.7,398.2,69.7z
				 M397.66,41.92h-6.31v25.6h6.31c7.9,0,12.21-5.49,12.21-13.43C409.86,46.87,404.83,41.92,397.66,41.92z"/>
		</g>
	</g>
	<g>
		<path class="st1" d="M84.9,43.1c-5.1-12.85-17.48-20.7-30.53-20.7c-4.02,0-8.11,0.74-12.07,2.32c-8.15,3.24-14.54,9.45-18.02,17.5
			c-3.47,8.05-3.6,16.97-0.37,25.11s9.45,14.54,17.5,18.02c8.05,3.47,16.96,3.6,25.11,0.37C83.33,79.03,91.58,59.91,84.9,43.1z
			 M65.61,83.34c-15.71,6.24-33.5-1.44-39.74-17.15c-6.24-15.71,1.44-33.5,17.15-39.74c15.71-6.24,33.5,1.44,39.74,17.15
			S81.32,77.1,65.61,83.34z"/>
		<path class="st0" d="M86.2,42.58c-3.37-8.49-9.85-15.16-18.24-18.78c-8.39-3.62-17.69-3.76-26.18-0.38
			c-8.49,3.37-15.16,9.85-18.78,18.24c-3.62,8.39-3.76,17.69-0.38,26.18c3.37,8.49,9.85,15.16,18.24,18.78
			c4.35,1.88,8.94,2.82,13.54,2.82c4.27,0,8.55-0.81,12.63-2.43c8.49-3.37,15.16-9.85,18.78-18.24
			C89.43,60.37,89.57,51.07,86.2,42.58z M66.52,85.7c-8.15,3.23-17.06,3.11-25.11-0.37c-8.05-3.47-14.26-9.87-17.5-18.02
			s-3.11-17.06,0.37-25.11c3.47-8.05,9.87-14.26,18.02-17.5c3.96-1.57,8.05-2.32,12.07-2.32c13.06,0,25.43,7.85,30.53,20.7
			C91.58,59.91,83.33,79.03,66.52,85.7z"/>
		<rect x="49.76" y="58.25" class="st0" width="8.37" height="8.37"/>
		<rect x="35.81" y="58.25" class="st0" width="8.37" height="8.37"/>
		<path class="st0" d="M82.76,43.6c-6.24-15.71-24.03-23.39-39.74-17.15c-15.71,6.24-23.39,24.03-17.15,39.74
			C32.11,81.9,49.9,89.58,65.61,83.34C81.32,77.1,89,59.31,82.76,43.6z M45.57,68.02H34.41V56.85h11.16V68.02z M59.53,68.02H48.36
			V56.85h11.16V68.02z M59.53,54.06H48.36V42.9h11.16V54.06z M73.48,54.06H62.32V42.9h11.16V54.06z"/>
		<rect x="49.76" y="44.29" class="st0" width="8.37" height="8.37"/>
		<rect x="63.71" y="44.29" class="st0" width="8.37" height="8.37"/>
	</g>
</g>
</svg>
